<?xml version="1.0" encoding="UTF-8" standalone="no"?>
<!-- Created with Inkscape (http://www.inkscape.org/) -->

<svg
   xmlns:dc="http://purl.org/dc/elements/1.1/"
   xmlns:cc="http://creativecommons.org/ns#"
   xmlns:rdf="http://www.w3.org/1999/02/22-rdf-syntax-ns#"
   xmlns:svg="http://www.w3.org/2000/svg"
   xmlns="http://www.w3.org/2000/svg"
   xmlns:sodipodi="http://sodipodi.sourceforge.net/DTD/sodipodi-0.dtd"
   xmlns:inkscape="http://www.inkscape.org/namespaces/inkscape"
   id="svg4101"
   sodipodi:docname="app-icon.svg"
   viewBox="0 0 85.629453 85.629453"
   version="1.1"
   inkscape:version="0.92.5 (2060ec1f9f, 2020-04-08)"
   width="85.629456"
   height="85.629456">
  <defs
     id="defs18" />
  <sodipodi:namedview
     id="base"
     bordercolor="#666666"
     inkscape:pageshadow="2"
     inkscape:window-y="41"
     fit-margin-left="0"
     pagecolor="#ffffff"
     fit-margin-top="0"
     inkscape:window-maximized="1"
     inkscape:zoom="7.919596"
     inkscape:window-x="0"
     inkscape:window-height="2082"
     showgrid="false"
     borderopacity="1.0"
     inkscape:current-layer="layer1"
     inkscape:cx="27.887781"
     inkscape:cy="48.408916"
     fit-margin-right="0"
     fit-margin-bottom="0"
     inkscape:window-width="3840"
     inkscape:pageopacity="0.0"
     inkscape:document-units="px" />
  <g
     id="layer1"
     inkscape:label="Ebene 1"
     inkscape:groupmode="layer"
     transform="translate(-201.04167,-179.35349)">
    <rect
       style="fill:#ffffff;stroke:#ffffff;stroke-width:36.40763855;stroke-linejoin:round;stroke-miterlimit:4;stroke-dasharray:none;stroke-opacity:1;fill-opacity:1"
       id="rect823"
       width="196.89348"
       height="154.08832"
       x="148.27277"
       y="149.26891"
       ry="0" />
    <g
       id="g4068"
       transform="matrix(0.64087425,0.3360825,-0.3360825,0.64087425,165.2266,-313.56493)">
      <g
         id="g4046"
         transform="matrix(0.83109,-0.84336,0.84336,0.83109,-425.72,478.53)">
        <path
           id="path3194"
           style="fill:#000000;stroke-width:0"
           inkscape:connector-curvature="0"
           d="m 443.65,563.57 c -1.0519,-0.0129 -2.107,0.0598 -3.1274,0.18048 l 0.06,2.7509 c 0.99036,-0.12733 2.0099,-0.19417 3.0337,-0.18162 12.831,0.15709 23.11,11.577 22.939,25.533 -0.002,0.17643 -10e-4,0.35569 -0.007,0.53121 l 2.5006,-0.0319 c 0.004,-0.15699 0.004,-0.31113 0.006,-0.46872 0.18944,-15.473 -11.18,-28.139 -25.405,-28.313 z" />
        <path
           id="path3194-4"
           sodipodi:nodetypes="cccscccccc"
           style="fill:#000000;stroke-width:0"
           inkscape:connector-curvature="0"
           d="m 442.9,570.53 c -0.79783,-0.01 -1.598,0.0454 -2.372,0.13688 l 0.0455,2.5283 c 0.75111,-0.0966 1.5244,-0.14725 2.3008,-0.13774 9.7311,0.11913 16.959,8.3382 16.83,18.923 -0.002,0.1338 -10e-4,0.26976 -0.005,0.40289 l 2.4647,-0.0242 c 0.003,-0.11907 0.003,-0.23598 0.004,-0.35547 0.14368,-11.735 -8.4793,-21.341 -19.268,-21.474 z" />
        <path
           id="path3194-0"
           sodipodi:nodetypes="cccccccccc"
           style="fill:#000000;stroke-width:0"
           inkscape:connector-curvature="0"
           d="m 442.21,576.89 c -0.56577,-0.007 -1.1332,0.0322 -1.6821,0.0971 l 0.0323,2.4266 c 0.53265,-0.0685 1.081,-0.10442 1.6316,-0.0977 6.9008,0.46331 10.914,5.09 11.138,12.786 -10e-4,0.0949 -7.7e-4,0.19129 -0.003,0.28572 l 2.5445,-0.0171 c 0.002,-0.0845 0.002,-0.16735 0.003,-0.25208 0.10189,-8.322 -6.0131,-15.134 -13.664,-15.228 z" />
      </g>
      <g
         id="g4061"
         transform="translate(4.3273)">
        <path
           id="path4401"
           style="fill:#000000"
           inkscape:connector-curvature="0"
           d="m 428.83,632.5 c 1.5174,8.3951 3.1884,16.704 3.2504,25.864 13.434,-7.0701 16.246,-8.6004 29.68,-15.671 -4.844,-3.3768 -9.5917,-7.3935 -13.563,-11.229 -6.1412,1.9817 -12.377,2.6317 -19.367,1.0358 z m 3.0356,3.5588 2.9005,0.34654 c 1.6573,7.6899 1.2443,15.12 -0.19508,18.637 -0.5999,-6.1199 -0.9108,-10.445 -2.7055,-18.984 z" />
        <path
           id="path3423-9-5"
           style="fill:#000000"
           inkscape:connector-curvature="0"
           d="m 398.12,602.82 c 5.464,15.304 20.054,26.266 37.241,26.321 17.188,0.0547 31.819,-10.803 37.38,-26.073 l -74.621,-0.24766 z m 6.1134,4.377 6.5596,0.18844 c 4.5202,8.2308 9.0556,11.778 15.41,16.825 -9.1354,-2.7564 -16.947,-7.8077 -21.97,-17.013 z" />
        <g
           id="g4055"
           transform="translate(2.1997,2)">
          <rect
             id="rect4051"
             style="fill:#000000;stroke-width:0"
             height="8.0811996"
             width="3.283"
             y="594.76001"
             x="431.59" />
          <ellipse
             id="path4053"
             style="fill:#000000;stroke-width:0"
             cx="433.22916"
             cy="594.00549"
             rx="3.4092648"
             ry="3.7880721" />
        </g>
      </g>
    </g>
  </g>
  <metadata
     id="metadata15">
    <rdf:RDF>
      <cc:Work>
        <dc:format>image/svg+xml</dc:format>
        <dc:type
           rdf:resource="http://purl.org/dc/dcmitype/StillImage" />
        <cc:license
           rdf:resource="http://creativecommons.org/publicdomain/zero/1.0/" />
        <dc:publisher>
          <cc:Agent
             rdf:about="http://openclipart.org/">
            <dc:title>Openclipart</dc:title>
          </cc:Agent>
        </dc:publisher>
        <dc:title>Satellite Dish Icon</dc:title>
        <dc:date>2011-06-19T23:55:53</dc:date>
        <dc:description>Satellite Dish</dc:description>
        <dc:source>https://openclipart.org/detail/146155/satellite-dish-icon-by-marauder</dc:source>
        <dc:creator>
          <cc:Agent>
            <dc:title>marauder</dc:title>
          </cc:Agent>
        </dc:creator>
        <dc:subject>
          <rdf:Bag>
            <rdf:li>Space</rdf:li>
            <rdf:li>comic</rdf:li>
            <rdf:li>cosmic</rdf:li>
            <rdf:li>icon</rdf:li>
            <rdf:li>satellite</rdf:li>
            <rdf:li>science fiction</rdf:li>
            <rdf:li>space</rdf:li>
          </rdf:Bag>
        </dc:subject>
      </cc:Work>
      <cc:License
         rdf:about="http://creativecommons.org/publicdomain/zero/1.0/">
        <cc:permits
           rdf:resource="http://creativecommons.org/ns#Reproduction" />
        <cc:permits
           rdf:resource="http://creativecommons.org/ns#Distribution" />
        <cc:permits
           rdf:resource="http://creativecommons.org/ns#DerivativeWorks" />
      </cc:License>
    </rdf:RDF>
  </metadata>
</svg>
